<?xml version="1.0" encoding="utf-8"?>
<!-- Generator: Adobe Illustrator 26.1.0, SVG Export Plug-In . SVG Version: 6.00 Build 0)  -->
<svg version="1.1" id="Capa_1" xmlns="http://www.w3.org/2000/svg" xmlns:xlink="http://www.w3.org/1999/xlink" x="0px" y="0px"
	 viewBox="0 0 587.2 93.8" style="enable-background:new 0 0 587.2 93.8;" xml:space="preserve">
<style type="text/css">
	.st0{fill:#FFFFFF;}
	.st1{opacity:0.4;fill:#FFFFFF;enable-background:new    ;}
</style>
<g>
	<path class="st0" d="M30.9,44h4.4v-2.9c0-3.2,2.6-5.9,5.9-5.9s5.9,2.6,5.9,5.9v14.6h4.4c1.1,0,1.8,1.1,1.3,2.1l-5.7,9.6v20.5
		c0,3.2-2.6,5.9-5.8,5.9s-5.9-2.6-5.9-5.9V55.7l-5.7-9.6C29.1,45.2,29.8,44,30.9,44z"/>
	<path class="st1" d="M76.1,82.1H47V67.5l5.7-9.6c0.5-1-0.2-2.1-1.3-2.1H47V41.1c0-3.2-2.6-5.9-5.9-5.9s-5.9,2.6-5.9,5.9V44h-4.4
		c-1.1,0-1.8,1.1-1.3,2.1l5.7,9.6v26.4H6.1c-5.2,0-8-6.3-4.5-10.3l12.6-14.6h-2.8c-4.7,0-7.2-5.3-4.2-8.9l11.2-13.1h-2
		c-3.9,0-6-4.1-3.5-6.8L37.6,1.6c1.9-2.1,5.2-2.1,7.1,0l24.7,26.8c2.5,2.7,0.2,6.8-3.5,6.8h-2L75,48.3c3,3.5,0.4,8.9-4.2,8.9H68
		l12.6,14.6C84.1,75.7,81.3,82.1,76.1,82.1z"/>
</g>
<g>
	<path class="st0" d="M123.9,31.7c1.6-2.8,3.7-5,6.4-6.6c2.7-1.6,5.7-2.4,9-2.4c4.1,0,7.5,1,10.4,2.9c2.9,1.9,5,4.6,6.3,8.1h-4.3
		c-1-2.5-2.6-4.4-4.8-5.8c-2.1-1.4-4.7-2.1-7.7-2.1c-2.7,0-5.1,0.6-7.2,1.9c-2.1,1.2-3.8,3-5,5.4c-1.2,2.3-1.8,5.1-1.8,8.1
		c0,3.1,0.6,5.8,1.8,8.1c1.2,2.3,2.9,4.1,5,5.4s4.5,1.9,7.2,1.9c3,0,5.6-0.7,7.7-2.1s3.7-3.3,4.8-5.7h4.3c-1.3,3.5-3.4,6.2-6.3,8.1
		c-2.9,1.9-6.4,2.9-10.4,2.9c-3.3,0-6.3-0.8-9-2.4c-2.7-1.6-4.8-3.8-6.4-6.6c-1.6-2.8-2.3-6-2.3-9.6
		C121.6,37.7,122.3,34.5,123.9,31.7z"/>
	<path class="st0" d="M163.4,37.6c1.2-2.2,2.8-3.9,4.8-5.1c2.1-1.2,4.4-1.8,7-1.8c2.7,0,5,0.6,7,1.9c2,1.2,3.4,2.8,4.2,4.8v-6.2h3.6
		v28.4h-3.6v-6.3c-0.9,1.9-2.3,3.5-4.3,4.8c-2,1.3-4.3,1.9-7,1.9c-2.6,0-4.9-0.6-6.9-1.8c-2.1-1.2-3.7-2.9-4.8-5.1
		c-1.2-2.2-1.7-4.8-1.7-7.7C161.6,42.3,162.2,39.8,163.4,37.6z M185,39.2c-0.9-1.7-2.2-3.1-3.8-4s-3.4-1.4-5.3-1.4
		c-2,0-3.8,0.5-5.4,1.4c-1.6,0.9-2.9,2.2-3.8,3.9c-0.9,1.7-1.4,3.8-1.4,6.1c0,2.3,0.5,4.4,1.4,6.1c0.9,1.8,2.2,3.1,3.8,4
		c1.6,0.9,3.4,1.4,5.4,1.4c1.9,0,3.7-0.5,5.3-1.4c1.6-0.9,2.9-2.3,3.8-4c0.9-1.7,1.4-3.7,1.4-6S186,41,185,39.2z"/>
	<path class="st0" d="M205.7,32c1.6-1,3.7-1.5,6.1-1.5v3.8h-1c-2.6,0-4.7,0.7-6.3,2.1c-1.6,1.4-2.4,3.8-2.4,7.1v15.9h-3.6V31.1h3.6
		v5C202.8,34.4,204.1,33,205.7,32z"/>
	<path class="st0" d="M225.1,32.5c2-1.2,4.3-1.9,6.9-1.9c2.6,0,4.9,0.6,7,1.8c2,1.2,3.6,2.9,4.8,5.1c1.2,2.2,1.7,4.8,1.7,7.7
		c0,2.9-0.6,5.5-1.7,7.7c-1.2,2.2-2.8,3.9-4.8,5.1c-2.1,1.2-4.4,1.8-6.9,1.8c-2.7,0-5-0.6-7-1.8c-2-1.2-3.4-2.8-4.3-4.8v6.2h-3.6V21
		h3.6v16.4C221.7,35.4,223.2,33.8,225.1,32.5z M240.5,39.1c-0.9-1.7-2.2-3-3.8-3.9c-1.6-0.9-3.4-1.4-5.4-1.4c-1.9,0-3.7,0.5-5.3,1.4
		s-2.9,2.3-3.8,4c-0.9,1.7-1.4,3.7-1.4,6s0.5,4.3,1.4,6c0.9,1.7,2.2,3.1,3.8,4c1.6,0.9,3.4,1.4,5.3,1.4c2,0,3.8-0.5,5.4-1.4
		c1.6-0.9,2.9-2.3,3.8-4c0.9-1.8,1.4-3.8,1.4-6.1C241.9,42.9,241.5,40.8,240.5,39.1z"/>
	<path class="st0" d="M257.5,58.1c-2.1-1.2-3.8-2.9-5-5.1c-1.2-2.2-1.8-4.8-1.8-7.7c0-2.9,0.6-5.5,1.9-7.7c1.2-2.2,2.9-3.9,5.1-5.1
		c2.1-1.2,4.6-1.8,7.2-1.8c2.7,0,5.1,0.6,7.3,1.8c2.2,1.2,3.9,2.9,5.1,5.1c1.2,2.2,1.8,4.8,1.8,7.7c0,2.9-0.6,5.5-1.9,7.7
		c-1.2,2.2-3,3.9-5.1,5.1c-2.2,1.2-4.6,1.8-7.3,1.8C262.1,59.9,259.7,59.3,257.5,58.1z M269.9,55.4c1.6-0.8,2.9-2.1,3.9-3.8
		s1.5-3.8,1.5-6.3s-0.5-4.6-1.5-6.3c-1-1.7-2.3-3-3.8-3.8c-1.6-0.8-3.3-1.3-5.2-1.3c-1.9,0-3.6,0.4-5.2,1.3
		c-1.6,0.8-2.9,2.1-3.8,3.8c-1,1.7-1.4,3.8-1.4,6.3s0.5,4.6,1.4,6.3c1,1.7,2.2,3,3.8,3.8c1.6,0.8,3.3,1.3,5.2,1.3
		C266.6,56.7,268.3,56.3,269.9,55.4z"/>
	<path class="st0" d="M307.3,33.7c2.1,2.1,3.2,5.1,3.2,9.1v16.6H307V43.2c0-3.1-0.8-5.4-2.3-7.1c-1.5-1.6-3.6-2.4-6.3-2.4
		c-2.7,0-4.9,0.9-6.6,2.6c-1.6,1.7-2.4,4.3-2.4,7.6v15.5h-3.6V31.1h3.6v4.8c0.9-1.7,2.2-3.1,3.9-4c1.7-0.9,3.6-1.4,5.8-1.4
		C302.4,30.6,305.2,31.6,307.3,33.7z"/>
	<path class="st0" d="M323.8,58.1c-2.1-1.2-3.8-2.9-5-5.1c-1.2-2.2-1.8-4.8-1.8-7.7c0-2.9,0.6-5.5,1.9-7.7c1.2-2.2,2.9-3.9,5.1-5.1
		c2.1-1.2,4.6-1.8,7.2-1.8s5.1,0.6,7.3,1.8s3.9,2.9,5.1,5.1c1.2,2.2,1.8,4.8,1.8,7.7c0,2.9-0.6,5.5-1.9,7.7c-1.2,2.2-3,3.9-5.1,5.1
		c-2.2,1.2-4.6,1.8-7.3,1.8C328.4,59.9,326,59.3,323.8,58.1z M336.2,55.4c1.6-0.8,2.9-2.1,3.9-3.8c1-1.7,1.5-3.8,1.5-6.3
		s-0.5-4.6-1.5-6.3c-1-1.7-2.3-3-3.8-3.8c-1.6-0.8-3.3-1.3-5.2-1.3s-3.6,0.4-5.2,1.3c-1.6,0.8-2.9,2.1-3.8,3.8
		c-1,1.7-1.4,3.8-1.4,6.3s0.5,4.6,1.4,6.3c1,1.7,2.2,3,3.8,3.8c1.6,0.8,3.3,1.3,5.2,1.3C332.9,56.7,334.6,56.3,336.2,55.4z"/>
	<path class="st0" d="M387.9,33.7c2.1,2.1,3.2,5.1,3.2,9.1v16.6h-3.6V43.2c0-3.1-0.8-5.4-2.3-7.1c-1.5-1.6-3.6-2.4-6.3-2.4
		c-2.7,0-4.9,0.9-6.6,2.6c-1.6,1.7-2.4,4.3-2.4,7.6v15.5h-3.6V31.1h3.6v4.8c0.9-1.7,2.2-3.1,3.9-4s3.6-1.4,5.8-1.4
		C382.9,30.6,385.7,31.6,387.9,33.7z"/>
	<path class="st0" d="M424.7,46.7h-23.6c0.1,2.1,0.6,4,1.6,5.5c0.9,1.5,2.2,2.7,3.7,3.5c1.5,0.8,3.2,1.2,5,1.2c2.4,0,4.3-0.6,6-1.7
		s2.7-2.7,3.2-4.6h3.8c-0.7,2.8-2.2,5-4.4,6.8c-2.3,1.8-5.1,2.6-8.6,2.6c-2.7,0-5.1-0.6-7.2-1.8c-2.1-1.2-3.8-2.9-5-5.1
		c-1.2-2.2-1.8-4.8-1.8-7.7c0-2.9,0.6-5.5,1.8-7.7c1.2-2.2,2.8-3.9,4.9-5.1c2.1-1.2,4.5-1.8,7.2-1.8c2.7,0,5.1,0.6,7.1,1.8
		c2,1.2,3.6,2.8,4.7,4.8c1.1,2,1.6,4.2,1.6,6.6C424.8,45.1,424.8,46,424.7,46.7z M419.9,38.3c-0.9-1.5-2.1-2.6-3.6-3.4
		c-1.5-0.8-3.2-1.1-5-1.1c-2.7,0-5,0.9-6.9,2.6c-1.9,1.7-3,4.2-3.2,7.3h20C421.2,41.6,420.7,39.8,419.9,38.3z"/>
	<path class="st0" d="M450.3,32.5c2,1.2,3.4,2.8,4.3,4.7v-6.2h3.6v29.1c0,2.6-0.6,4.9-1.7,6.9c-1.1,2-2.7,3.6-4.7,4.7
		s-4.3,1.6-6.9,1.6c-3.6,0-6.7-0.9-9.1-2.6s-3.9-4.1-4.5-7.1h3.6c0.6,2,1.8,3.6,3.6,4.7c1.7,1.2,3.9,1.8,6.4,1.8
		c1.8,0,3.5-0.4,4.9-1.2c1.5-0.8,2.6-1.9,3.4-3.5c0.8-1.5,1.2-3.3,1.2-5.4v-7c-0.9,1.9-2.3,3.5-4.3,4.8c-2,1.3-4.3,1.9-6.9,1.9
		c-2.6,0-4.9-0.6-7-1.8s-3.7-2.9-4.8-5.1c-1.2-2.2-1.7-4.8-1.7-7.7c0-2.9,0.6-5.5,1.7-7.7c1.2-2.2,2.8-3.9,4.8-5.1s4.4-1.8,7-1.8
		C446,30.7,448.4,31.3,450.3,32.5z M453.2,39.2c-0.9-1.7-2.2-3.1-3.8-4c-1.6-0.9-3.4-1.4-5.3-1.4c-2,0-3.8,0.5-5.4,1.4
		s-2.9,2.2-3.8,3.9s-1.4,3.8-1.4,6.1c0,2.3,0.5,4.4,1.4,6.1c0.9,1.8,2.2,3.1,3.8,4c1.6,0.9,3.4,1.4,5.4,1.4c1.9,0,3.7-0.5,5.3-1.4
		c1.6-0.9,2.9-2.3,3.8-4c0.9-1.7,1.4-3.7,1.4-6S454.1,41,453.2,39.2z"/>
	<path class="st0" d="M466.6,37.6c1.2-2.2,2.8-3.9,4.8-5.1s4.4-1.8,7-1.8c2.7,0,5,0.6,7,1.9c2,1.2,3.4,2.8,4.2,4.8v-6.2h3.6v28.4
		h-3.6v-6.3c-0.9,1.9-2.3,3.5-4.3,4.8c-2,1.3-4.3,1.9-7,1.9c-2.6,0-4.9-0.6-6.9-1.8s-3.7-2.9-4.8-5.1c-1.2-2.2-1.7-4.8-1.7-7.7
		C464.9,42.3,465.5,39.8,466.6,37.6z M488.3,39.2c-0.9-1.7-2.2-3.1-3.8-4c-1.6-0.9-3.4-1.4-5.3-1.4c-2,0-3.8,0.5-5.4,1.4
		s-2.9,2.2-3.8,3.9s-1.4,3.8-1.4,6.1c0,2.3,0.5,4.4,1.4,6.1c0.9,1.8,2.2,3.1,3.8,4c1.6,0.9,3.4,1.4,5.4,1.4c1.9,0,3.7-0.5,5.3-1.4
		c1.6-0.9,2.9-2.3,3.8-4c0.9-1.7,1.4-3.7,1.4-6S489.2,41,488.3,39.2z"/>
	<path class="st0" d="M506.4,34.1v17.6c0,1.7,0.3,2.9,1,3.6c0.7,0.7,1.8,1,3.5,1h3.3v3.1h-3.9c-2.6,0-4.5-0.6-5.7-1.8
		c-1.2-1.2-1.9-3.2-1.9-5.9V34.1h-4v-3.1h4V24h3.7v7.1h7.8v3.1H506.4z"/>
	<path class="st0" d="M520.1,24.9c-0.5-0.5-0.8-1.2-0.8-1.9c0-0.8,0.3-1.4,0.8-1.9s1.1-0.8,1.9-0.8c0.7,0,1.4,0.3,1.9,0.8
		c0.5,0.5,0.8,1.1,0.8,1.9c0,0.8-0.3,1.4-0.8,1.9c-0.5,0.5-1.1,0.8-1.9,0.8C521.3,25.7,520.6,25.5,520.1,24.9z M523.8,31.1v28.4
		h-3.6V31.1H523.8z"/>
	<path class="st0" d="M542.2,55.9l9.6-24.9h3.8l-11.4,28.4h-4.1l-11.4-28.4h3.9L542.2,55.9z"/>
	<path class="st0" d="M565.7,58.1c-2.1-1.2-3.8-2.9-5-5.1c-1.2-2.2-1.8-4.8-1.8-7.7c0-2.9,0.6-5.5,1.9-7.7c1.2-2.2,2.9-3.9,5.1-5.1
		c2.1-1.2,4.6-1.8,7.2-1.8s5.1,0.6,7.3,1.8s3.9,2.9,5.1,5.1c1.2,2.2,1.8,4.8,1.8,7.7c0,2.9-0.6,5.5-1.9,7.7c-1.2,2.2-3,3.9-5.1,5.1
		c-2.2,1.2-4.6,1.8-7.3,1.8C570.3,59.9,567.9,59.3,565.7,58.1z M578.1,55.4c1.6-0.8,2.9-2.1,3.9-3.8c1-1.7,1.5-3.8,1.5-6.3
		S583,40.7,582,39c-1-1.7-2.3-3-3.8-3.8c-1.6-0.8-3.3-1.3-5.2-1.3s-3.6,0.4-5.2,1.3c-1.6,0.8-2.9,2.1-3.8,3.8
		c-1,1.7-1.4,3.8-1.4,6.3s0.5,4.6,1.4,6.3c1,1.7,2.2,3,3.8,3.8c1.6,0.8,3.3,1.3,5.2,1.3C574.8,56.7,576.5,56.3,578.1,55.4z"/>
</g>
</svg>
