<?xml version="1.0" encoding="UTF-8"?>
<svg xmlns="http://www.w3.org/2000/svg" baseProfile="tiny" version="1.2" viewBox="0 0 126 31">
  <!-- Generator: Adobe Illustrator 28.6.0, SVG Export Plug-In . SVG Version: 1.2.0 Build 709)  -->
  <g>
    <g id="Capa_1">
      <path d="M33.07,11.07h12.74v2.36h-5.01v13.29h-2.76v-13.29h-4.99v-2.36h.01ZM45.27,15.39h2.36v2.19h.04c.08-.31.22-.61.43-.89.21-.29.47-.56.77-.8.3-.24.63-.43,1-.59.37-.14.74-.22,1.12-.22.29,0,.5.01.61.02.11.01.22.03.34.04v2.41c-.18-.03-.36-.06-.54-.08-.19-.02-.37-.03-.54-.03-.42,0-.82.09-1.2.25s-.7.42-.98.74c-.28.33-.5.73-.67,1.22s-.24,1.04-.24,1.67v5.39h-2.51v-11.32s.01,0,.01,0ZM63.49,26.72h-2.47v-1.58h-.04c-.31.57-.77,1.03-1.38,1.37s-1.23.52-1.87.52c-1.5,0-2.59-.36-3.26-1.1s-1-1.86-1-3.35v-7.19h2.51v6.95c0,.99.19,1.7.58,2.11.38.41.92.62,1.61.62.53,0,.97-.08,1.32-.24s.64-.38.86-.65c.22-.27.38-.6.48-.97s.14-.78.14-1.23v-6.57h2.51s0,11.32,0,11.32ZM67.77,23.09c.08.73.36,1.24.83,1.54.49.29,1.07.44,1.74.44.23,0,.5-.02.8-.06.3-.03.59-.11.84-.21.27-.1.48-.25.66-.45.17-.2.24-.45.23-.77s-.13-.59-.36-.78c-.22-.21-.5-.36-.84-.5-.34-.12-.73-.23-1.18-.32s-.89-.19-1.34-.29c-.47-.1-.92-.23-1.36-.38s-.82-.34-1.17-.6c-.34-.24-.62-.56-.82-.95-.21-.39-.31-.86-.31-1.44,0-.62.16-1.13.46-1.55.3-.42.69-.75,1.14-1.01.47-.25.98-.43,1.54-.54.57-.1,1.11-.15,1.62-.15.59,0,1.16.07,1.69.19s1.02.32,1.46.61c.43.28.79.64,1.08,1.08.29.44.47.98.54,1.61h-2.62c-.12-.6-.39-1.01-.82-1.2-.43-.21-.93-.31-1.49-.31-.18,0-.39.01-.63.04-.24.03-.47.09-.69.17-.21.08-.39.2-.54.35-.14.15-.22.35-.22.61,0,.31.11.55.32.74.21.19.49.34.83.48.34.12.73.23,1.18.32s.9.19,1.37.29c.46.1.9.23,1.34.38s.83.34,1.18.6.62.56.83.94.32.85.32,1.4c0,.67-.16,1.24-.47,1.71-.31.46-.71.85-1.2,1.14-.49.29-1.04.51-1.64.64s-1.2.2-1.79.2c-.72,0-1.39-.08-2-.24s-1.14-.41-1.59-.73c-.44-.33-.8-.74-1.06-1.23-.26-.49-.39-1.07-.41-1.75h2.53v-.02ZM76.06,15.39h1.9v-3.4h2.51v3.4h2.27v1.87h-2.27v6.05c0,.27.01.49.03.68.02.19.08.35.16.49.08.13.2.23.37.3.17.07.38.1.67.1.18,0,.36,0,.53-.01s.36-.03.53-.08v1.93c-.28.03-.56.06-.81.09-.27.03-.53.04-.81.04-.67,0-1.2-.07-1.6-.19-.4-.12-.72-.31-.94-.55-.23-.24-.38-.54-.47-.91-.08-.36-.13-.78-.14-1.25v-6.68h-1.9v-1.89s-.02,0-.02,0ZM84.51,15.39h2.38v1.54h.04c.36-.66.84-1.13,1.48-1.41.63-.29,1.31-.43,2.06-.43.9,0,1.68.15,2.34.48.67.31,1.22.74,1.67,1.29.44.55.77,1.19.99,1.92.22.73.33,1.51.33,2.34,0,.76-.1,1.5-.3,2.21-.2.72-.5,1.35-.9,1.9-.4.55-.91.98-1.53,1.31s-1.34.5-2.19.5c-.37,0-.73-.03-1.1-.1s-.72-.18-1.06-.32c-.33-.14-.66-.33-.93-.56-.29-.23-.52-.5-.72-.8h-.04v5.66h-2.51v-15.52ZM93.29,21.07c0-.51-.07-1.01-.2-1.49s-.33-.91-.6-1.28-.6-.67-.99-.89c-.4-.22-.86-.34-1.37-.34-1.06,0-1.86.36-2.39,1.09-.53.73-.8,1.7-.8,2.92,0,.57.07,1.1.21,1.59.14.49.34.91.63,1.26.28.35.61.63,1,.83.39.21.84.31,1.36.31.58,0,1.06-.12,1.46-.35s.72-.54.98-.91c.26-.38.44-.8.56-1.27.1-.48.16-.96.16-1.46ZM97.72,11.07h2.51v2.36h-2.51v-2.36ZM97.72,15.39h2.51v11.33h-2.51v-11.33ZM102.48,11.07h2.51v15.65h-2.51v-15.65ZM112.69,27.03c-.91,0-1.72-.15-2.43-.45s-1.31-.72-1.81-1.24c-.49-.53-.87-1.16-1.12-1.89-.26-.73-.39-1.54-.39-2.41s.13-1.66.39-2.39.63-1.36,1.12-1.89c.49-.53,1.1-.94,1.81-1.24s1.52-.45,2.43-.45,1.72.15,2.43.45c.71.3,1.31.72,1.81,1.24.49.53.87,1.16,1.12,1.89.26.73.39,1.52.39,2.39s-.13,1.68-.39,2.41c-.26.73-.63,1.36-1.12,1.89s-1.1.94-1.81,1.24-1.52.45-2.43.45ZM112.69,25.06c.56,0,1.04-.12,1.46-.35s.74-.54,1.01-.92.46-.81.59-1.28c.12-.48.19-.96.19-1.46s-.07-.96-.19-1.45c-.12-.49-.32-.91-.59-1.28-.27-.38-.6-.67-1.01-.91s-.9-.35-1.46-.35-1.04.12-1.46.35-.74.54-1.01.91c-.27.38-.46.8-.59,1.28-.12.49-.19.96-.19,1.45s.07.98.19,1.46c.12.48.32.91.59,1.28.27.38.6.68,1.01.92.41.24.9.35,1.46.35ZM119.18,15.39h1.9v-3.4h2.51v3.4h2.27v1.87h-2.27v6.05c0,.27.01.49.03.68.02.19.08.35.16.49s.2.23.37.3c.17.07.38.1.67.1.18,0,.36,0,.53-.01s.36-.03.53-.08v1.93c-.28.03-.56.06-.81.09-.27.03-.53.04-.81.04-.67,0-1.2-.07-1.6-.19-.4-.12-.72-.31-.94-.55-.23-.24-.38-.54-.47-.91-.08-.36-.13-.78-.14-1.25v-6.68h-1.9v-1.89s-.02,0-.02,0Z" fill="#191919"/>
      <path d="M30.14,11.07h-11.51L15.08.18l-3.57,10.89H0s9.32,6.73,9.32,6.73l-3.57,10.88,9.32-6.73,9.31,6.73-3.56-10.88s9.31-6.73,9.31-6.73Z" fill="#00b67a"/>
      <path d="M21.63,20.26l-.8-2.46-5.76,4.15,6.55-1.69Z" fill="#005128"/>
    </g>
  </g>
</svg>